<?xml version="1.0" encoding="UTF-8" standalone="no" ?>
<!DOCTYPE svg PUBLIC "-//W3C//DTD SVG 1.1//EN" "http://www.w3.org/Graphics/SVG/1.1/DTD/svg11.dtd">
<svg xmlns="http://www.w3.org/2000/svg" xmlns:xlink="http://www.w3.org/1999/xlink" version="1.1" width="1280" height="733.697886321722" viewBox="0 0 1280 733.697886321722" xml:space="preserve">
<desc>Created with Fabric.js 5.3.0</desc>
<defs>
</defs>
<g transform="matrix(1 0 0 1 640 366.848943160861)" id="background-logo"  >
<rect style="stroke: none; stroke-width: 0; stroke-dasharray: none; stroke-linecap: butt; stroke-dashoffset: 0; stroke-linejoin: miter; stroke-miterlimit: 4; fill: rgb(255,255,255); fill-opacity: 0; fill-rule: nonzero; opacity: 1;"  paint-order="stroke"  x="-802.1651388679838" y="-641.732111094387" rx="0" ry="0" width="1604.3302777359677" height="1283.464222188774" />
</g>
<g transform="matrix(2.662732706127131 0 0 2.662732706127131 635.5122460176264 267.987329593016)" id="logo-logo"  >
<g style=""  paint-order="stroke"   >
		<g transform="matrix(1.1832085793394356 0 0 1.1832085793394356 0 2.842171e-14)"  >
<g style=""  paint-order="stroke"   >
		<g transform="matrix(1 0 0 1 0 0)"  >
<linearGradient id="SVGID_156995_350302" gradientUnits="userSpaceOnUse" gradientTransform="matrix(1 0 0 1 0 0.09000000000000341)"  x1="0" y1="0" x2="0" y2="201">
<stop offset="0%" style="stop-color:rgb(23,234,217);stop-opacity: 1"/>
<stop offset="100%" style="stop-color:rgb(96,120,234);stop-opacity: 1"/>
</linearGradient>
<path style="stroke: none; stroke-width: 1; stroke-dasharray: none; stroke-linecap: butt; stroke-dashoffset: 0; stroke-linejoin: miter; stroke-miterlimit: 4; fill: url(#SVGID_156995_350302); fill-rule: nonzero; opacity: 1;"  paint-order="stroke"  transform=" translate(-84.82, -85.09)" d="M 90.1 39.18 L 99.19999999999999 78.44 C 100.40999999999998 83.67 103.6 87.72 107.63999999999999 89.14 L 146.26 101.31 L 107.63999999999999 113.48 C 103.63999999999999 114.91000000000001 100.40999999999998 118.95 99.19999999999999 124.18 L 90.1 163.44 L 81 124.18 C 79.79 118.95 76.6 114.91000000000001 72.57 113.48 L 33.94 101.31 L 72.56 89.14 C 76.56 87.72 79.78 83.67 80.99000000000001 78.44 Z M 104.58 12.18 C 104.33269774369377 13.642841565500731 103.36169457046189 14.88105879028091 102 15.47 L 90.1 19.22 L 102 23 C 103.36325355393139 23.589275306579967 104.33724244522561 24.82650443876453 104.59 26.290000000000003 L 107.4 38.379999999999995 L 110.2 26.289999999999996 C 110.45302519007214 24.82354196818221 111.43172728013566 23.585107400371058 112.8 22.999999999999996 L 124.69 19.249999999999996 L 112.8 15.499999999999996 C 111.4294053451885 14.91793159556909 110.44953182286181 13.678014715394173 110.2 12.209999999999997 L 107.39 0.09 Z M 133.88 123.66 C 133.65395992349048 124.99286763360712 132.76996414307445 126.12137288520206 131.53 126.66 L 120.78 130 L 131.53 133.39 C 132.76996414307445 133.9286271147979 133.65395992349048 135.05713236639286 133.88 136.39 L 136.42 147.32 L 139 136.4 C 139.22604007650952 135.06713236639288 140.11003585692555 133.93862711479795 141.35 133.4 L 152.05 130 L 141.3 126.61 C 140.06003585692557 126.07137288520207 139.17604007650954 124.94286763360712 138.95000000000002 123.61 L 136.42000000000002 112.68 Z M 47 144 C 46.75070441058565 145.46503471923967 45.77556245343979 146.70372855669524 44.41 147.29 L 32.55 151 L 44.44 154.75 C 45.78118864772162 155.33957583847007 46.74095437732363 156.5580284248789 47 158 L 49.81 170.09 L 52.64 158 C 52.89302519007214 156.53354196818222 53.87172728013566 155.29510740037108 55.24 154.71 L 67.13 151 L 55.239999999999995 147.25 C 53.8694053451885 146.6679315955691 52.88953182286182 145.42801471539417 52.63999999999999 143.96 L 49.839999999999996 131.87 Z M 47.26 44.45 C 47.03395992349048 45.782867633607125 46.14996414307444 46.91137288520207 44.91 47.45 L 34.12 50.85 L 44.91 54.25 C 46.14996414307444 54.78862711479793 47.03395992349048 55.91713236639288 47.26 57.25 L 49.809999999999995 68.25 L 52.349999999999994 57.25 C 52.57803813656165 55.91494441283628 53.46616866004713 54.785964933829305 54.709999999999994 54.25 L 65.49 50.85 L 54.709999999999994 47.45 C 53.46616866004713 46.9140350661707 52.57803813656165 45.785055587163725 52.349999999999994 44.45 L 49.809999999999995 33.45 Z M 13.14 11.06 C 12.913959923490484 12.392867633607125 12.029964143074444 13.52137288520207 10.790000000000001 14.06 L 0 17.45 L 10.79 20.849999999999998 C 12.029964143074443 21.388627114797927 12.91395992349048 22.51713236639287 13.139999999999999 23.849999999999998 L 15.68 34.849999999999994 L 18.23 23.849999999999994 C 18.456040076509517 22.51713236639287 19.340035856925557 21.388627114797927 20.58 20.849999999999994 L 31.37 17.449999999999996 L 20.580000000000002 14.049999999999995 C 19.340035856925557 13.511372885202064 18.456040076509517 12.38286763360712 18.23 11.049999999999995 L 15.68 0.09 Z M 149.2 50.65 C 148.93531163082932 52.13776341947263 147.94465961589844 53.39484078690388 146.56 54 L 134.47 57.81 L 146.56 61.620000000000005 C 147.95483275044748 62.22789356190735 148.9480150741258 63.49946790055611 149.2 65 L 152.04999999999998 77.3 L 154.9 65 C 155.16130325212646 63.510720217315715 156.15307467553768 62.25222238836587 157.54 61.65 L 169.64 57.839999999999996 L 157.54 54 C 156.15534038410155 53.39484078690388 155.16468836917068 52.13776341947263 154.9 50.65 L 152.05 38.349999999999994 Z" stroke-linecap="round" />
</g>
</g>
</g>
</g>
</g>
<g transform="matrix(2.4682004272861042 0 0 2.4682004272861042 640.2635318401518 622.3216018284966)" id="text-logo"  >
<g style=""  paint-order="stroke"   >
		<g transform="matrix(1 0 0 1 0 0)" id="text-logo-path-0"  >
<path style="stroke: none; stroke-width: 0; stroke-dasharray: none; stroke-linecap: butt; stroke-dashoffset: 0; stroke-linejoin: miter; stroke-miterlimit: 4; fill: rgb(83,140,231); fill-rule: nonzero; opacity: 1;"  paint-order="stroke"  transform=" translate(-263.47499999999997, 14.060000000000002)" d="M 29.56 -22.46 L 31.63 -21.42 Q 31.45 -20.39 31.45 -19.61 L 31.45 -19.61 Q 31.41 -18.72 31.34 -17.3 Q 31.26 -15.87 31.15 -14.19 Q 31.04 -12.51 30.88 -10.67 Q 30.71 -8.84 30.47 -7.16 Q 30.23 -5.48 29.91 -4.05 Q 29.6 -2.63 29.19 -1.74 L 29.19 -1.74 Q 28.64 -0.55 27.71 -0.04 Q 26.79 0.48 25.23 0.48 L 25.23 0.48 Q 23.83 0.48 22.27 0.41 Q 20.72 0.33 19.28 0.26 L 19.28 0.26 L 18.91 -2.81 Q 20.42 -2.63 21.83 -2.52 Q 23.24 -2.4 24.42 -2.4 L 24.42 -2.4 Q 25.23 -2.4 25.75 -2.66 Q 26.27 -2.92 26.57 -3.63 L 26.57 -3.63 Q 26.94 -4.33 27.2 -5.49 Q 27.45 -6.66 27.68 -8.1 Q 27.9 -9.55 28.05 -11.14 Q 28.19 -12.73 28.29 -14.24 Q 28.38 -15.76 28.42 -17.13 Q 28.45 -18.5 28.45 -19.5 L 28.45 -19.5 L 18.09 -19.5 Q 17.61 -15.5 16.63 -12.41 Q 15.65 -9.32 14.23 -6.86 Q 12.8 -4.4 10.93 -2.5 Q 9.06 -0.59 6.73 1 L 6.73 1 L 4.07 -1.18 Q 6.66 -2.59 8.58 -4.57 Q 10.51 -6.55 11.84 -8.9 Q 13.17 -11.25 13.99 -13.95 Q 14.8 -16.65 15.17 -19.5 L 15.17 -19.5 L 8.95 -19.5 Q 7.84 -19.5 6.75 -19.48 Q 5.66 -19.46 4.7 -19.35 L 4.7 -19.35 L 4.7 -22.5 Q 5.66 -22.38 6.75 -22.33 Q 7.84 -22.27 8.92 -22.27 L 8.92 -22.27 L 15.43 -22.27 Q 15.5 -23.16 15.54 -24.11 Q 15.58 -25.05 15.58 -26.05 L 15.58 -26.05 Q 15.58 -26.68 15.5 -27.56 Q 15.43 -28.45 15.32 -29.12 L 15.32 -29.12 L 18.8 -29.12 Q 18.72 -28.49 18.67 -27.62 Q 18.61 -26.75 18.57 -26.08 L 18.57 -26.08 Q 18.54 -25.09 18.5 -24.14 Q 18.46 -23.2 18.39 -22.27 L 18.39 -22.27 L 27.2 -22.27 Q 27.93 -22.27 28.51 -22.33 Q 29.08 -22.38 29.56 -22.46 L 29.56 -22.46 Z M 70.04 -28.9 L 72.48 -26.68 Q 70.56 -24.72 68.01 -22.59 Q 65.45 -20.46 62.57 -18.65 L 62.57 -18.65 L 62.57 -2.81 Q 62.57 -1.74 62.62 -0.57 Q 62.68 0.59 62.79 1.15 L 62.79 1.15 L 59.16 1.15 Q 59.2 0.89 59.24 0.43 Q 59.27 -0.04 59.31 -0.57 Q 59.35 -1.11 59.37 -1.7 Q 59.38 -2.29 59.38 -2.81 L 59.38 -2.81 L 59.38 -16.8 Q 56.39 -15.13 52.76 -13.62 Q 49.14 -12.1 45.47 -11.03 L 45.47 -11.03 L 43.77 -13.91 Q 46.1 -14.47 48.4 -15.23 Q 50.69 -15.98 52.84 -16.89 Q 54.98 -17.8 56.89 -18.78 Q 58.79 -19.76 60.31 -20.72 L 60.31 -20.72 Q 61.72 -21.61 63.12 -22.63 Q 64.53 -23.64 65.8 -24.7 Q 67.08 -25.75 68.17 -26.82 Q 69.26 -27.9 70.04 -28.9 L 70.04 -28.9 Z M 102.31 -19.98 L 112.15 -19.98 Q 113.07 -19.98 114 -20.02 Q 114.92 -20.05 115.37 -20.13 L 115.37 -20.13 L 115.37 -16.98 Q 114.92 -17.06 113.94 -17.08 Q 112.96 -17.09 112.11 -17.09 L 112.11 -17.09 L 102.31 -17.09 Q 102.31 -14.06 101.75 -11.4 Q 101.2 -8.73 99.97 -6.44 Q 98.75 -4.14 96.81 -2.18 Q 94.87 -0.22 92.06 1.41 L 92.06 1.41 L 89.17 -0.74 Q 94.39 -3.22 96.77 -7.31 Q 99.16 -11.4 99.2 -17.09 L 99.2 -17.09 L 88.36 -17.09 Q 87.28 -17.09 86.36 -17.08 Q 85.43 -17.06 84.88 -16.98 L 84.88 -16.98 L 84.88 -20.16 Q 85.43 -20.09 86.36 -20.04 Q 87.28 -19.98 88.28 -19.98 L 88.28 -19.98 L 99.2 -19.98 L 99.2 -24.97 Q 99.2 -25.38 99.18 -25.9 Q 99.16 -26.42 99.1 -26.94 Q 99.05 -27.45 98.99 -27.92 Q 98.94 -28.38 98.86 -28.64 L 98.86 -28.64 L 102.53 -28.64 Q 102.49 -28.38 102.45 -27.92 Q 102.42 -27.45 102.38 -26.94 Q 102.34 -26.42 102.32 -25.88 Q 102.31 -25.34 102.31 -24.94 L 102.31 -24.94 L 102.31 -19.98 Z M 148.15 -24.42 L 133.2 -24.42 Q 132.28 -24.42 131.41 -24.4 Q 130.54 -24.38 129.83 -24.31 L 129.83 -24.31 L 129.83 -27.38 Q 130.61 -27.31 131.44 -27.23 Q 132.28 -27.16 133.16 -27.16 L 133.16 -27.16 L 148.15 -27.16 Q 148.93 -27.16 149.85 -27.21 Q 150.78 -27.27 151.59 -27.38 L 151.59 -27.38 L 151.59 -24.31 Q 150.78 -24.38 149.87 -24.4 Q 148.96 -24.42 148.15 -24.42 L 148.15 -24.42 Z M 128.65 -17.91 L 152.85 -17.91 Q 153.44 -17.91 154.25 -17.95 Q 155.07 -17.98 155.73 -18.09 L 155.73 -18.09 L 155.73 -15.02 Q 155.1 -15.06 154.31 -15.08 Q 153.51 -15.1 152.85 -15.1 L 152.85 -15.1 L 142.78 -15.1 Q 142.71 -12.1 142.21 -9.58 Q 141.71 -7.07 140.6 -5 L 140.6 -5 Q 140.12 -4.07 139.34 -3.13 Q 138.56 -2.18 137.62 -1.29 Q 136.68 -0.41 135.59 0.37 Q 134.5 1.15 133.31 1.74 L 133.31 1.74 L 130.57 -0.26 Q 132.76 -1.15 134.62 -2.65 Q 136.49 -4.14 137.57 -5.92 L 137.57 -5.92 Q 138.79 -7.88 139.21 -10.17 Q 139.64 -12.47 139.71 -15.1 L 139.71 -15.1 L 128.65 -15.1 Q 127.8 -15.1 126.98 -15.1 Q 126.17 -15.1 125.43 -15.02 L 125.43 -15.02 L 125.43 -18.09 Q 126.17 -18.02 126.98 -17.96 Q 127.8 -17.91 128.65 -17.91 L 128.65 -17.91 Z M 192.29 -24.61 L 194.77 -23.13 Q 194.55 -22.72 194.31 -22.16 Q 194.07 -21.61 193.88 -21.16 L 193.88 -21.16 Q 193.51 -19.79 192.9 -18.19 Q 192.29 -16.58 191.46 -14.91 Q 190.62 -13.25 189.59 -11.6 Q 188.55 -9.95 187.33 -8.44 L 187.33 -8.44 Q 184.82 -5.36 181.32 -2.83 Q 177.82 -0.3 172.61 1.63 L 172.61 1.63 L 169.94 -0.78 Q 175.05 -2.29 178.6 -4.7 Q 182.15 -7.1 184.7 -10.06 L 184.7 -10.06 Q 185.78 -11.36 186.74 -12.84 Q 187.7 -14.32 188.46 -15.85 Q 189.22 -17.39 189.77 -18.87 Q 190.33 -20.35 190.59 -21.61 L 190.59 -21.61 L 178.08 -21.61 Q 176.42 -19.28 174.09 -16.91 Q 171.75 -14.54 168.72 -12.51 L 168.72 -12.51 L 166.17 -14.43 Q 168.57 -15.87 170.46 -17.54 Q 172.35 -19.2 173.77 -20.87 Q 175.2 -22.53 176.19 -24.11 Q 177.19 -25.68 177.79 -26.94 L 177.79 -26.94 Q 178.08 -27.42 178.41 -28.27 Q 178.75 -29.12 178.93 -29.86 L 178.93 -29.86 L 182.37 -28.71 Q 181.89 -27.97 181.45 -27.16 Q 181 -26.34 180.71 -25.83 L 180.71 -25.83 Q 180.34 -25.05 179.82 -24.27 L 179.82 -24.27 L 189.88 -24.27 Q 191.4 -24.27 192.29 -24.61 L 192.29 -24.61 Z M 229.25 -27.56 L 232.8 -26.6 Q 232.47 -25.86 232.16 -24.97 Q 231.84 -24.09 231.62 -23.38 L 231.62 -23.38 Q 231.07 -21.87 230.38 -20.15 Q 229.7 -18.43 228.86 -16.65 Q 228.03 -14.87 227.03 -13.15 Q 226.03 -11.43 224.85 -9.92 L 224.85 -9.92 Q 223.59 -8.32 222 -6.79 Q 220.41 -5.25 218.6 -3.88 Q 216.78 -2.52 214.84 -1.37 Q 212.9 -0.22 210.9 0.63 L 210.9 0.63 L 208.31 -2.07 Q 210.38 -2.81 212.34 -3.83 Q 214.3 -4.85 216.1 -6.12 Q 217.89 -7.4 219.47 -8.86 Q 221.04 -10.32 222.3 -11.88 L 222.3 -11.88 Q 223.59 -13.5 224.68 -15.39 Q 225.77 -17.28 226.66 -19.33 Q 227.55 -21.39 228.22 -23.48 Q 228.88 -25.57 229.25 -27.56 L 229.25 -27.56 Z M 275.5 -22.46 L 275.5 -4.22 Q 275.5 -3.77 275.5 -3.09 Q 275.5 -2.4 275.52 -1.72 Q 275.54 -1.04 275.56 -0.48 Q 275.58 0.07 275.58 0.22 L 275.58 0.22 L 272.39 0.22 Q 272.39 0.04 272.41 -0.55 Q 272.43 -1.15 272.43 -1.89 L 272.43 -1.89 L 252.23 -1.89 Q 252.27 -1.15 252.27 -0.55 Q 252.27 0.04 252.3 0.22 L 252.3 0.22 L 249.12 0.22 Q 249.12 0.07 249.14 -0.48 Q 249.16 -1.04 249.18 -1.7 Q 249.2 -2.37 249.21 -3.07 Q 249.23 -3.77 249.23 -4.25 L 249.23 -4.25 L 249.23 -22.46 Q 249.23 -23.09 249.23 -23.88 Q 249.23 -24.68 249.16 -25.34 L 249.16 -25.34 Q 250.23 -25.31 251.03 -25.29 Q 251.82 -25.27 252.45 -25.27 L 252.45 -25.27 L 272.32 -25.27 Q 272.95 -25.27 273.84 -25.27 Q 274.73 -25.27 275.58 -25.34 L 275.58 -25.34 Q 275.5 -24.64 275.5 -23.9 Q 275.5 -23.16 275.5 -22.46 L 275.5 -22.46 Z M 272.47 -22.35 L 252.23 -22.35 L 252.23 -4.77 L 272.47 -4.77 L 272.47 -22.35 Z M 313.65 -28.49 L 315.72 -29.38 Q 316.09 -28.9 316.57 -28.19 Q 317.05 -27.49 317.53 -26.71 Q 318.01 -25.94 318.48 -25.14 Q 318.94 -24.35 319.27 -23.72 L 319.27 -23.72 L 317.16 -22.75 Q 316.42 -24.23 315.5 -25.73 Q 314.57 -27.23 313.65 -28.49 L 313.65 -28.49 Z M 293.41 -25.68 L 295.07 -28.16 Q 295.89 -27.71 297.02 -26.99 Q 298.15 -26.27 299.31 -25.51 Q 300.48 -24.75 301.49 -24.07 Q 302.51 -23.38 303.1 -22.94 L 303.1 -22.94 L 301.37 -20.39 Q 300.7 -20.9 299.68 -21.61 Q 298.66 -22.31 297.54 -23.07 Q 296.41 -23.83 295.32 -24.51 Q 294.22 -25.2 293.41 -25.68 L 293.41 -25.68 Z M 308.84 -26.71 L 310.87 -27.6 Q 311.21 -27.12 311.67 -26.4 Q 312.13 -25.68 312.61 -24.88 Q 313.09 -24.09 313.54 -23.31 Q 313.98 -22.53 314.31 -21.87 L 314.31 -21.87 L 312.21 -20.9 Q 311.5 -22.38 310.63 -23.92 Q 309.76 -25.46 308.84 -26.71 L 308.84 -26.71 Z M 287.82 -17.32 L 289.49 -19.83 Q 290.3 -19.39 291.45 -18.72 Q 292.6 -18.06 293.76 -17.33 Q 294.93 -16.61 295.98 -15.95 Q 297.04 -15.28 297.63 -14.84 L 297.63 -14.84 L 295.93 -12.25 Q 295.22 -12.76 294.19 -13.45 Q 293.15 -14.13 292.02 -14.86 Q 290.89 -15.58 289.78 -16.22 Q 288.67 -16.87 287.82 -17.32 L 287.82 -17.32 Z M 291.23 1.29 L 289.52 -1.7 Q 292.6 -2.22 295.85 -3.31 Q 299.11 -4.4 301.92 -5.99 L 301.92 -5.99 Q 306.55 -8.66 310.12 -12.15 Q 313.69 -15.65 315.94 -19.57 L 315.94 -19.57 L 317.72 -16.5 Q 315.28 -12.76 311.61 -9.34 Q 307.95 -5.92 303.47 -3.29 L 303.47 -3.29 Q 302.11 -2.48 300.5 -1.76 Q 298.89 -1.04 297.26 -0.44 Q 295.63 0.15 294.08 0.59 Q 292.52 1.04 291.23 1.29 L 291.23 1.29 Z M 328.78 -12.39 L 328.78 -16.02 Q 329.63 -15.95 331 -15.89 Q 332.37 -15.84 333.92 -15.84 L 333.92 -15.84 L 354.2 -15.84 Q 355.61 -15.84 356.59 -15.89 Q 357.57 -15.95 358.2 -16.02 L 358.2 -16.02 L 358.2 -12.39 Q 357.64 -12.43 356.57 -12.51 Q 355.5 -12.58 354.24 -12.58 L 354.24 -12.58 L 333.92 -12.58 Q 332.37 -12.58 331 -12.52 Q 329.63 -12.47 328.78 -12.39 L 328.78 -12.39 Z M 380.32 -12.99 L 378.66 -11.06 Q 378.47 -11.54 378.14 -12.21 Q 377.81 -12.88 377.42 -13.62 Q 377.03 -14.36 376.6 -15.15 Q 376.18 -15.95 375.77 -16.69 L 375.77 -16.69 L 375.77 2.81 L 373.07 2.81 L 373.07 -15.24 Q 372.11 -12.1 370.92 -9.32 Q 369.74 -6.55 368.45 -4.66 L 368.45 -4.66 Q 368.19 -5.29 367.76 -6.05 Q 367.34 -6.81 366.93 -7.33 L 366.93 -7.33 Q 367.82 -8.47 368.69 -10.08 Q 369.56 -11.69 370.33 -13.56 Q 371.11 -15.43 371.74 -17.41 Q 372.37 -19.39 372.77 -21.27 L 372.77 -21.27 L 367.78 -21.27 L 367.78 -23.86 L 373.07 -23.86 L 373.07 -30.97 L 375.77 -30.97 L 375.77 -23.86 L 380.47 -23.86 L 380.47 -21.27 L 375.77 -21.27 L 375.77 -20.05 Q 376.14 -19.54 376.81 -18.52 Q 377.47 -17.5 378.18 -16.41 Q 378.88 -15.32 379.49 -14.36 Q 380.1 -13.39 380.32 -12.99 L 380.32 -12.99 Z M 400.71 -12.51 L 393.79 -12.51 Q 394.49 -10.88 395.4 -9.27 Q 396.31 -7.66 397.34 -6.2 Q 398.38 -4.74 399.51 -3.51 Q 400.64 -2.29 401.75 -1.41 L 401.75 -1.41 Q 401.23 -1.04 400.67 -0.43 Q 400.12 0.18 399.75 0.7 L 399.75 0.7 Q 398.71 -0.26 397.66 -1.54 Q 396.6 -2.81 395.64 -4.31 Q 394.68 -5.81 393.81 -7.46 Q 392.94 -9.1 392.2 -10.8 L 392.2 -10.8 L 392.2 2.81 L 389.5 2.81 L 389.5 -10.47 Q 387.8 -6.96 385.43 -3.92 Q 383.06 -0.89 380.51 1 L 380.51 1 Q 380.17 0.48 379.64 -0.13 Q 379.1 -0.74 378.62 -1.11 L 378.62 -1.11 Q 379.99 -1.96 381.3 -3.2 Q 382.62 -4.44 383.84 -5.94 Q 385.06 -7.44 386.09 -9.12 Q 387.13 -10.8 387.94 -12.51 L 387.94 -12.51 L 380.73 -12.51 L 380.73 -15.02 L 389.5 -15.02 L 389.5 -21.53 L 384.91 -21.53 Q 384.39 -19.98 383.82 -18.59 Q 383.25 -17.2 382.51 -16.09 L 382.51 -16.09 Q 382.14 -16.39 381.45 -16.84 Q 380.77 -17.28 380.25 -17.46 L 380.25 -17.46 Q 381.73 -19.65 382.64 -22.75 Q 383.54 -25.86 384.02 -29.23 L 384.02 -29.23 L 386.58 -28.79 Q 386.39 -27.56 386.15 -26.38 Q 385.91 -25.2 385.61 -24.05 L 385.61 -24.05 L 389.5 -24.05 L 389.5 -30.93 L 392.2 -30.93 L 392.2 -24.05 L 399.41 -24.05 L 399.41 -21.53 L 392.2 -21.53 L 392.2 -15.02 L 400.71 -15.02 L 400.71 -12.51 Z M 441.15 -21.39 L 430.35 -21.39 Q 430.68 -16.72 431.38 -12.8 Q 432.09 -8.88 433.07 -6.01 Q 434.05 -3.15 435.25 -1.55 Q 436.45 0.04 437.82 0.04 L 437.82 0.04 Q 438.56 0.04 438.93 -1.59 Q 439.3 -3.22 439.49 -6.92 L 439.49 -6.92 Q 439.97 -6.44 440.65 -6.03 Q 441.34 -5.62 441.93 -5.4 L 441.93 -5.4 Q 441.74 -3 441.45 -1.41 Q 441.15 0.18 440.65 1.15 Q 440.15 2.11 439.41 2.5 Q 438.67 2.89 437.6 2.89 L 437.6 2.89 Q 435.34 2.89 433.64 1.02 Q 431.94 -0.85 430.7 -4.13 Q 429.46 -7.4 428.68 -11.84 Q 427.9 -16.28 427.53 -21.39 L 427.53 -21.39 L 408.44 -21.39 L 408.44 -24.09 L 427.35 -24.09 Q 427.28 -25.75 427.24 -27.42 Q 427.2 -29.08 427.16 -30.78 L 427.16 -30.78 L 430.05 -30.78 Q 430.05 -29.04 430.09 -27.4 Q 430.12 -25.75 430.2 -24.09 L 430.2 -24.09 L 441.15 -24.09 L 441.15 -21.39 Z M 439.63 -26.27 L 437.71 -24.53 Q 437.3 -25.01 436.69 -25.6 Q 436.08 -26.2 435.38 -26.82 Q 434.68 -27.45 433.92 -28.06 Q 433.16 -28.67 432.46 -29.16 L 432.46 -29.16 L 434.31 -30.67 Q 435.01 -30.19 435.77 -29.62 Q 436.53 -29.04 437.25 -28.47 Q 437.97 -27.9 438.6 -27.32 Q 439.23 -26.75 439.63 -26.27 L 439.63 -26.27 Z M 419.02 -13.25 L 419.02 -3.11 Q 420.99 -3.51 422.97 -3.92 Q 424.94 -4.33 426.94 -4.77 L 426.94 -4.77 L 427.16 -2.33 Q 424.83 -1.78 422.43 -1.22 Q 420.02 -0.67 417.73 -0.13 Q 415.44 0.41 413.33 0.89 Q 411.22 1.37 409.44 1.74 L 409.44 1.74 L 408.59 -0.96 Q 410.14 -1.26 412.12 -1.66 Q 414.1 -2.07 416.32 -2.52 L 416.32 -2.52 L 416.32 -13.25 L 409.74 -13.25 L 409.74 -15.91 L 425.94 -15.91 L 425.94 -13.25 L 419.02 -13.25 Z M 465.53 -30.93 L 468.16 -29.79 Q 467.86 -29.41 467.61 -29.04 Q 467.35 -28.67 467.09 -28.3 L 467.09 -28.3 Q 468.35 -27.01 470.07 -25.64 Q 471.79 -24.27 473.78 -23 Q 475.78 -21.72 477.98 -20.63 Q 480.19 -19.54 482.41 -18.76 L 482.41 -18.76 Q 481.92 -18.35 481.37 -17.63 Q 480.81 -16.91 480.48 -16.32 L 480.48 -16.32 Q 478.89 -16.95 477.34 -17.76 Q 475.78 -18.57 474.27 -19.54 L 474.27 -19.54 L 474.27 -16.98 L 456.69 -16.98 L 456.69 -19.24 Q 455.25 -18.31 453.73 -17.5 Q 452.21 -16.69 450.59 -15.95 L 450.59 -15.95 Q 450.29 -16.46 449.68 -17.17 Q 449.07 -17.87 448.59 -18.28 L 448.59 -18.28 Q 451.29 -19.43 453.8 -20.85 Q 456.32 -22.27 458.52 -23.9 Q 460.72 -25.53 462.52 -27.31 Q 464.31 -29.08 465.53 -30.93 L 465.53 -30.93 Z M 457.17 -19.54 L 474.27 -19.54 Q 471.68 -21.16 469.42 -22.96 Q 467.16 -24.75 465.5 -26.45 L 465.5 -26.45 Q 462.02 -22.64 457.17 -19.54 L 457.17 -19.54 Z M 450.33 -9.8 L 450.33 -12.47 L 480.7 -12.47 L 480.7 -9.8 L 464.57 -9.8 Q 462.83 -7.51 460.93 -5.35 Q 459.02 -3.18 457.02 -1.41 L 457.02 -1.41 L 473.82 -2.66 Q 472.82 -3.85 471.71 -5 Q 470.6 -6.14 469.53 -7.1 L 469.53 -7.1 L 471.86 -8.36 Q 473.08 -7.25 474.32 -5.99 Q 475.56 -4.74 476.67 -3.46 Q 477.78 -2.18 478.72 -0.96 Q 479.67 0.26 480.26 1.29 L 480.26 1.29 L 477.82 2.81 Q 477.41 2.15 476.91 1.37 Q 476.41 0.59 475.78 -0.22 L 475.78 -0.22 Q 470.9 0.18 467.38 0.46 Q 463.87 0.74 461.45 0.94 Q 459.02 1.15 457.49 1.29 Q 455.95 1.44 455.03 1.57 Q 454.1 1.7 453.62 1.79 Q 453.14 1.89 452.81 2.03 L 452.81 2.03 Q 452.66 1.59 452.38 0.7 Q 452.1 -0.18 451.88 -0.81 L 451.88 -0.81 Q 452.47 -0.92 453.12 -1.42 Q 453.77 -1.92 454.62 -2.74 L 454.62 -2.74 Q 455.03 -3.07 455.69 -3.74 Q 456.36 -4.4 457.21 -5.35 Q 458.06 -6.29 459 -7.44 Q 459.95 -8.58 460.83 -9.8 L 460.83 -9.8 L 450.33 -9.8 Z M 514.23 -1.29 L 522.88 -1.29 L 522.88 1.41 L 501.76 1.41 L 501.76 -1.29 L 511.49 -1.29 L 511.49 -16.76 L 503.5 -16.76 L 503.5 -19.43 L 511.49 -19.43 L 511.49 -31.01 L 514.23 -31.01 L 514.23 -19.43 L 522.11 -19.43 L 522.11 -16.76 L 514.23 -16.76 L 514.23 -1.29 Z M 499.17 -26.2 L 496.98 -24.83 Q 496.72 -25.34 496.34 -25.97 Q 495.95 -26.6 495.49 -27.27 Q 495.02 -27.93 494.52 -28.56 Q 494.02 -29.19 493.51 -29.75 L 493.51 -29.75 L 495.58 -30.97 Q 496.65 -29.9 497.67 -28.55 Q 498.69 -27.2 499.17 -26.2 L 499.17 -26.2 Z M 503.27 -10.73 L 501.53 -8.47 Q 500.94 -9.29 499.85 -10.58 Q 498.76 -11.88 497.69 -13.06 L 497.69 -13.06 L 497.69 2.81 L 494.99 2.81 L 494.99 -12.25 Q 493.73 -10.99 492.45 -9.92 Q 491.17 -8.84 489.88 -7.99 L 489.88 -7.99 Q 489.69 -8.58 489.31 -9.42 Q 488.92 -10.25 488.62 -10.66 L 488.62 -10.66 Q 490.14 -11.54 491.67 -12.8 Q 493.21 -14.06 494.62 -15.56 Q 496.02 -17.06 497.24 -18.72 Q 498.46 -20.39 499.35 -22.09 L 499.35 -22.09 L 489.62 -22.09 L 489.62 -24.61 L 500.79 -24.61 L 501.31 -24.72 L 502.79 -23.64 Q 501.94 -21.57 500.76 -19.59 Q 499.57 -17.61 498.17 -15.84 L 498.17 -15.84 Q 498.72 -15.32 499.48 -14.56 Q 500.24 -13.8 500.98 -13.06 Q 501.72 -12.32 502.35 -11.67 Q 502.98 -11.03 503.27 -10.73 L 503.27 -10.73 Z" stroke-linecap="round" />
</g>
</g>
</g>
<g transform="matrix(2.4682004272861042 0 0 2.4682004272861042 641.5877942107203 720.6717176926551)" id="tagline-808cf7f7-34ce-4ca0-bb8c-0b2ad458a0e0-logo"  >
<g style=""  paint-order="stroke"   >
		<g transform="matrix(1 0 0 1 0 0)" id="tagline-808cf7f7-34ce-4ca0-bb8c-0b2ad458a0e0-logo-path-0"  >
<path style="stroke: none; stroke-width: 0; stroke-dasharray: none; stroke-linecap: butt; stroke-dashoffset: 0; stroke-linejoin: miter; stroke-miterlimit: 4; fill: rgb(86,204,229); fill-rule: nonzero; opacity: 1;"  paint-order="stroke"  transform=" translate(-82.80499999999999, 5.25)" d="M 4.41 -0.15 C 2.9 -0.15 2.22 -1.3 2.22 -2.17 C 2.22 -2.7 2.31 -3.39 2.75 -3.78 C 1.54 -3.72 0.49 -3.21 0.49 -2.11 C 0.49 -0.57 2.73 0.15 4.41 0.15 C 6.38 0.15 7.89 -0.87 7.89 -2.5 C 7.89 -4.48 6.09 -5.4 4.53 -6.25 C 3.34 -6.93 2.29 -7.56 2.29 -8.63 C 2.29 -9.79 2.9 -10.35 4.33 -10.35 C 5.46 -10.35 5.83 -9.49 5.83 -8.47 C 5.83 -8.1 5.75 -7.41 5.31 -7.02 C 6.51 -7.08 7.56 -7.59 7.56 -8.54 C 7.56 -10.23 5.63 -10.65 4.33 -10.65 C 2.17 -10.65 0.82 -9.54 0.82 -7.79 C 0.82 -6.3 2.35 -5.54 3.82 -4.69 C 5.23 -3.92 6.6 -3.06 6.6 -1.88 C 6.6 -0.65 5.25 -0.15 4.41 -0.15 Z M 16.57 -9.79 L 16.57 -0.7 C 16.57 -0.38 16.37 -0.15 16.17 0 L 22.68 0 L 22.82 -0.26 L 23.1 -0.84 C 22.77 -0.67 22.27 -0.3 21.78 -0.3 L 18.23 -0.3 L 18.23 -9.79 C 18.23 -10.13 18.44 -10.35 18.63 -10.5 L 16.17 -10.5 C 16.37 -10.35 16.57 -10.13 16.57 -9.79 Z M 35.7 0.15 C 38.46 0.15 40.32 -1.89 40.32 -5.25 C 40.32 -8.49 38.58 -10.65 35.7 -10.65 C 32.94 -10.65 31.08 -8.61 31.08 -5.25 C 31.08 -1.99 32.8 0.15 35.7 0.15 Z M 35.7 -0.15 C 33.9 -0.15 32.8 -2.19 32.8 -5.25 C 32.8 -8.43 33.96 -10.35 35.7 -10.35 C 37.5 -10.35 38.59 -8.31 38.59 -5.25 C 38.59 -2.07 37.44 -0.15 35.7 -0.15 Z M 57.64 0 L 57.64 -4.09 C 57.64 -4.42 57.85 -4.65 58.05 -4.8 L 53.82 -4.8 L 53.68 -4.54 L 53.4 -3.96 C 53.73 -4.13 54.24 -4.5 54.73 -4.5 L 55.99 -4.5 L 55.99 -1.03 C 55.32 -0.46 54.45 -0.15 53.52 -0.15 C 51.57 -0.15 50.47 -2.19 50.47 -5.25 C 50.47 -8.43 51.63 -10.35 53.37 -10.35 C 54.64 -10.35 55.02 -9.49 55.02 -8.47 C 55.02 -8.1 54.93 -7.41 54.49 -7.02 C 55.69 -7.08 56.74 -7.59 56.74 -8.54 C 56.74 -10.23 54.81 -10.65 53.37 -10.65 C 50.61 -10.65 48.75 -8.61 48.75 -5.25 C 48.75 -1.99 50.47 0.15 53.52 0.15 C 54.46 0.15 55.32 -0.12 56.01 -0.61 C 56.53 -0.61 56.97 -0.36 57.34 0 Z M 70.18 -10.5 L 66.67 -0.66 C 66.55 -0.36 66.22 -0.15 66.03 0 L 67.14 0 C 66.94 -0.15 66.85 -0.36 66.97 -0.66 L 67.54 -2.25 L 72.15 -2.25 L 72.78 -0.66 C 72.9 -0.34 72.82 -0.15 72.63 0 L 75.09 0 C 74.89 -0.15 74.55 -0.34 74.43 -0.66 L 70.89 -9.84 C 70.77 -10.15 70.84 -10.35 71.04 -10.5 Z M 67.65 -2.55 L 69.72 -8.37 L 72.03 -2.55 Z M 83.48 -9.79 L 83.48 -0.7 C 83.48 -0.38 83.27 -0.15 83.07 0 L 84.18 0 C 83.98 -0.15 83.78 -0.38 83.78 -0.7 L 83.78 -9.58 L 90.08 0 L 90.67 0 L 90.67 -9.79 C 90.67 -10.13 90.89 -10.35 91.08 -10.5 L 89.97 -10.5 C 90.17 -10.35 90.38 -10.13 90.38 -9.79 L 90.38 -2.46 L 85.05 -10.5 L 83.07 -10.5 C 83.27 -10.35 83.48 -10.13 83.48 -9.79 Z M 110.06 -9.79 L 110.06 -0.7 C 110.06 -0.38 109.85 -0.15 109.65 0 L 112.11 0 C 111.92 -0.15 111.71 -0.38 111.71 -0.7 L 111.71 -5.25 L 116.06 -5.25 L 116.06 -0.7 C 116.06 -0.38 115.85 -0.15 115.65 0 L 118.11 0 C 117.92 -0.15 117.71 -0.38 117.71 -0.7 L 117.71 -9.79 C 117.71 -10.13 117.92 -10.35 118.11 -10.5 L 115.65 -10.5 C 115.85 -10.35 116.06 -10.13 116.06 -9.79 L 116.06 -5.55 L 111.71 -5.55 L 111.71 -9.79 C 111.71 -10.13 111.92 -10.35 112.11 -10.5 L 109.65 -10.5 C 109.85 -10.35 110.06 -10.13 110.06 -9.79 Z M 126.35 -9.79 L 126.35 -0.7 C 126.35 -0.38 126.14 -0.15 125.94 0 L 132.45 0 L 132.59 -0.26 L 132.87 -0.84 C 132.54 -0.67 132.05 -0.3 131.55 -0.3 L 128 -0.3 L 128 -5.7 L 130.4 -5.7 C 130.73 -5.7 130.95 -5.49 131.1 -5.29 L 131.1 -6.4 C 130.95 -6.21 130.73 -6 130.4 -6 L 128 -6 L 128 -10.2 L 131.4 -10.2 C 131.9 -10.2 132.39 -9.82 132.72 -9.66 L 132.44 -10.24 L 132.3 -10.5 L 125.94 -10.5 C 126.14 -10.35 126.35 -10.13 126.35 -9.79 Z M 141.56 -9.79 L 141.56 -0.7 C 141.56 -0.38 141.34 -0.15 141.15 0 L 143.61 0 C 143.41 -0.15 143.21 -0.38 143.21 -0.7 L 143.21 -4.5 L 144.72 -4.5 L 144.93 -4.5 L 147.33 -0.6 C 147.51 -0.32 147.5 -0.15 147.3 0 L 149.91 0 C 149.72 -0.15 149.31 -0.32 149.13 -0.6 L 146.94 -4.16 C 146.76 -4.46 146.44 -4.62 146.1 -4.62 L 145.98 -4.62 C 147.76 -4.95 148.89 -5.92 148.89 -7.5 C 148.89 -9.4 147.39 -10.46 144.72 -10.5 L 144.57 -10.5 L 141.15 -10.5 C 141.34 -10.35 141.56 -10.13 141.56 -9.79 Z M 144.57 -4.8 L 143.21 -4.8 L 143.21 -10.2 L 144.57 -10.2 C 146.07 -10.2 147.16 -9.3 147.16 -7.5 C 147.16 -5.63 146.31 -4.8 144.57 -4.8 Z M 158.59 -9.79 L 158.59 -0.7 C 158.59 -0.38 158.38 -0.15 158.19 0 L 164.7 0 L 164.83 -0.26 L 165.12 -0.84 C 164.79 -0.67 164.29 -0.3 163.8 -0.3 L 160.25 -0.3 L 160.25 -5.7 L 162.64 -5.7 C 162.97 -5.7 163.2 -5.49 163.35 -5.29 L 163.35 -6.4 C 163.2 -6.21 162.97 -6 162.64 -6 L 160.25 -6 L 160.25 -10.2 L 163.65 -10.2 C 164.14 -10.2 164.64 -9.82 164.97 -9.66 L 164.69 -10.24 L 164.55 -10.5 L 158.19 -10.5 C 158.38 -10.35 158.59 -10.13 158.59 -9.79 Z" stroke-linecap="round" />
</g>
</g>
</g>
</svg>